<svg width="64" height="64" version="1.1" viewBox="0 0 16.933279 16.93333" xmlns="http://www.w3.org/2000/svg">
 <g transform="translate(-18.732 -215.43)">
  <path d="m27.99 218.87a1.6169 3.9824 0 0 0 -0.79165 -3.4193 1.6169 3.9824 0 0 0 -0.79157 3.4193 1.6169 3.9824 0 0 0 0.79165 3.4193 1.6169 3.9824 0 0 0 0.79157 -3.4193z" style="fill:#ff0033;stroke-width:.021607;stroke:#000000"/>
  <path d="m27.99 228.92a1.6169 3.9824 0 0 0 -0.79165 -3.4193 1.6169 3.9824 0 0 0 -0.79157 3.4193 1.6169 3.9824 0 0 0 0.79165 3.4192 1.6169 3.9824 0 0 0 0.79158 -3.4192z" style="fill-opacity:.99733;fill:#f00fe6;stroke-width:.021607;stroke:#000000"/>
  <path d="m32.227 224.69a3.9824 1.6169 0 0 0 3.4193 -0.79163 3.9824 1.6169 0 0 0 -3.4193 -0.7916 3.9824 1.6169 0 0 0 -3.4192 0.79168 3.9824 1.6169 0 0 0 3.4192 0.79155z" style="fill-opacity:.99733;fill:#00fd4c;stroke-width:.021607;stroke:#000000"/>
  <path d="m22.17 224.69a3.9824 1.6169 0 0 0 3.4192 -0.79162 3.9824 1.6169 0 0 0 -3.4192 -0.79162 3.9824 1.6169 0 0 0 -3.4192 0.79166 3.9824 1.6169 0 0 0 3.4192 0.79158z" style="fill-opacity:.99733;fill:#2629d2;stroke-width:.021607;stroke:#000000"/>
  <path d="m31.314 220.9a1.6169 3.9824 45 0 0 1.858 -2.9775 1.6169 3.9824 45 0 0 -2.9775 1.858 1.6169 3.9824 45 0 0 -1.858 2.9775 1.6169 3.9824 45 0 0 2.9775 -1.858z" style="fill-opacity:.99733;fill:#1463fe;stroke-width:.021607;stroke:#000000"/>
  <path d="m24.203 228.01a1.6169 3.9824 45 0 0 1.858 -2.9776 1.6169 3.9824 45 0 0 -2.9775 1.858 1.6169 3.9824 45 0 0 -1.858 2.9775 1.6169 3.9824 45 0 0 2.9775 -1.858z" style="fill-opacity:.99733;fill:#7c777b;stroke-width:.021607;stroke:#000000"/>
  <path d="m30.194 228.01a3.9824 1.6169 45 0 0 2.9776 1.8579 3.9824 1.6169 45 0 0 -1.8581 -2.9775 3.9824 1.6169 45 0 0 -2.9776 -1.858 3.9824 1.6169 45 0 0 1.858 2.9775z" style="fill-opacity:.99733;fill:#eefe0b;stroke-width:.021607;stroke:#000000"/>
  <path d="m23.083 220.9a3.9824 1.6169 45 0 0 2.9776 1.858 3.9824 1.6169 45 0 0 -1.858 -2.9775 3.9824 1.6169 45 0 0 -2.9776 -1.858 3.9824 1.6169 45 0 0 1.858 2.9775z" style="fill-opacity:.99733;fill:#47e1de;stroke-width:.021607;stroke:#000000"/>
 </g>
</svg>
